<svg xmlns="http://www.w3.org/2000/svg" viewBox="0 0 973.926 257.406">
  <path d="M-207.677 389.655v33.54h33.55v-33.54h-33.55zm70.176 0v33.54h33.533v-33.54h-33.533zm70.16 0v33.54h33.54v-33.54h-33.54zm70.167 0v33.54h33.55v-33.54H2.826zm-210.503 66.768v33.55H36.385v-33.55h-244.062zm0 67.513v33.55H36.385v-33.55h-244.062zm221.094 64.276c-33.164-1.405-66.322 22.099-99.485 5.748v.012c-40.533-19.15-81.075 20.372-121.61.392v33.533c40.822 20.117 81.633-20.13 122.453 0v-.018c40.54 19.136 81.062-20.362 121.601-.376v-33.541c-7.654-3.774-15.306-5.425-22.959-5.75z" style="fill:#ce1628;fill-opacity:1;fill-rule:nonzero;stroke:none" transform="translate(212.677 -383.66)"/>
  <path d="M259.955 388.66v7.748h9.174v-7.749h-9.174zm450.672 0v41.88h8.718v-41.88h-8.718zm-522.356.01v41.873h8.717v-17.147c0-4.133 2.124-6.251 5.453-6.251 3.33 0 5.274 2.118 5.274 6.25v17.148h8.717v-19.9c0-7.054-3.841-11.417-10.43-11.417-4.42 0-7.005 2.34-9.013 4.924v-15.48h-8.718zm150.434 0v41.873h8.717v-17.147c0-4.133 2.124-6.251 5.453-6.251 3.323 0 5.273 2.118 5.273 6.25v17.148h8.717v-19.9c0-7.054-3.838-11.417-10.439-11.417-4.414 0-6.995 2.34-9.004 4.924v-15.48h-8.717zm202.665 0v41.873h8.717v-17.147c0-4.133 2.123-6.251 5.452-6.251 3.33 0 5.283 2.118 5.283 6.25v17.148h8.717v-19.9c0-7.054-3.844-11.417-10.44-11.417-4.419 0-7.003 2.34-9.012 4.924v-15.48h-8.717zm97.341 0v41.873h8.717v-17.147c0-4.133 2.124-6.251 5.453-6.251 3.323 0 5.273 2.118 5.273 6.25v17.148h8.717v-19.9c0-7.054-3.84-11.417-10.43-11.417-4.42 0-7.004 2.34-9.013 4.924v-15.48h-8.717zm-551.52 1.713v8.152h12.223v32.008h8.834v-32.008h12.214v-8.152H87.19zm340.587 0v40.16h8.842v-16.125h16.287v16.125h8.833v-40.16h-8.833v15.901H436.62v-15.9h-8.842zm-257.658 8.832c-9.408 0-16.116 7.232-16.116 16.008v.117c0 8.776 6.764 15.891 15.999 15.891 6.141 0 9.58-2.357 12.565-5.623l-5.103-5.156c-2.118 2.003-4.131 3.264-7.058 3.264-4.759 0-7.794-3.78-7.794-8.493v-.116c0-4.53 3.096-8.368 7.453-8.368 3.1 0 5.053 1.315 7.004 3.381l5.327-5.74c-2.87-3.214-6.48-5.165-12.277-5.165zm71.638 0c-4.42 0-7.004 2.358-9.013 4.941v-4.358h-8.717v30.743h8.717v-17.156c0-4.133 2.124-6.251 5.453-6.251s5.282 2.118 5.282 6.25v17.157h8.717v-19.9c0-7.06-3.844-11.426-10.439-11.426zm78.795 0c-9.401 0-16.116 7.232-16.116 16.008v.117c0 8.776 6.764 15.891 16 15.891 6.141 0 9.585-2.357 12.564-5.623l-5.103-5.156c-2.124 2.003-4.127 3.264-7.049 3.264-4.764 0-7.811-3.78-7.811-8.493v-.116c0-4.53 3.1-8.368 7.461-8.368 3.094 0 5.053 1.315 7.005 3.381l5.336-5.74c-2.87-3.214-6.49-5.165-12.287-5.165zm165.133 0c-9.58 0-16.69 7.175-16.69 16.008v.117c0 8.833 7.051 15.891 16.573 15.891 9.58 0 16.699-7.169 16.699-16.008v-.116c0-8.834-7.06-15.892-16.582-15.892zm37.54 0c-9.407 0-16.124 7.232-16.124 16.008v.117c0 8.776 6.773 15.891 16.008 15.891 6.142 0 9.58-2.357 12.565-5.623l-5.112-5.156c-2.118 2.003-4.122 3.264-7.05 3.264-4.757 0-7.802-3.78-7.802-8.493v-.116c0-4.53 3.09-8.368 7.453-8.368 3.1 0 5.05 1.315 6.995 3.381l5.336-5.74c-2.87-3.214-6.471-5.165-12.268-5.165zm97.342 0c-9.407 0-16.125 7.232-16.125 16.008v.117c0 8.776 6.77 15.891 16 15.891 6.141 0 9.58-2.357 12.564-5.623l-5.103-5.156c-2.123 2.003-4.127 3.264-7.049 3.264-4.758 0-7.802-3.78-7.802-8.493v-.116c0-4.53 3.1-8.368 7.461-8.368 3.094 0 5.044 1.315 6.996 3.381l5.336-5.74c-2.87-3.214-6.48-5.165-12.278-5.165zm-486.546.011c-8.948 0-15.2 7.218-15.2 16v.116c0 9.413 6.82 15.892 16.061 15.892 5.562 0 9.7-2.181 12.565-5.74l-4.995-4.421c-2.411 2.244-4.532 3.157-7.453 3.157-3.903 0-6.655-2.061-7.515-6.027h21.398c.057-.792.107-1.598.107-2.287 0-8.719-4.7-16.69-14.968-16.69zm254.152 0c-8.948 0-15.201 7.218-15.201 16v.116c0 9.413 6.82 15.892 16.062 15.892 5.562 0 9.694-2.181 12.564-5.74l-4.995-4.421c-2.41 2.244-4.531 3.157-7.453 3.157-3.903 0-6.663-2.061-7.524-6.027h21.398c.058-.792.117-1.598.117-2.287 0-8.719-4.7-16.69-14.968-16.69zm353.089 0c-8.942 0-15.192 7.218-15.192 16v.116c0 9.413 6.821 15.892 16.062 15.892 5.556 0 9.695-2.181 12.564-5.74l-4.995-4.424c-2.41 2.245-4.534 3.157-7.461 3.157-3.903 0-6.646-2.06-7.507-6.026h21.39c.063-.792.125-1.599.125-2.287 0-8.719-4.718-16.69-14.986-16.69zm-453.767.107c-6.193 0-11.237 3.502-11.237 9.758v.116c0 5.964 4.875 7.966 9.174 9.229 3.387 1.033 6.368 1.666 6.368 3.56v.108c0 1.377-1.143 2.304-3.668 2.304-2.87 0-6.366-1.266-9.695-3.677l-3.73 5.74c4.075 3.214 8.887 4.646 13.192 4.646 6.652 0 11.766-3.1 11.766-9.92v-.125c0-5.613-5-7.677-9.3-9.112-3.329-1.153-6.25-1.955-6.25-3.677v-.116c0-1.205 1.086-2.117 3.21-2.117 2.238 0 5.28 1.093 8.322 2.861l3.328-6.018c-3.33-2.238-7.577-3.56-11.48-3.56zm300.015 0c-6.193 0-11.246 3.502-11.246 9.758v.116c0 5.964 4.876 7.966 9.175 9.229 3.386 1.033 6.376 1.666 6.376 3.56v.108c0 1.377-1.157 2.304-3.677 2.304-2.87 0-6.366-1.266-9.695-3.677l-3.73 5.74c4.075 3.214 8.887 4.646 13.192 4.646 6.652 0 11.766-3.1 11.766-9.92v-.125c0-5.613-4.992-7.677-9.29-9.112-3.33-1.153-6.26-1.955-6.26-3.677v-.116c0-1.205 1.086-2.117 3.21-2.117 2.238 0 5.28 1.093 8.322 2.861l3.328-6.018c-3.33-2.238-7.568-3.56-11.47-3.56zm-327.332.467v30.743h8.726V399.8h-8.726zm414.055 0v19.9c0 7.066 3.848 11.417 10.448 11.417 4.414 0 6.996-2.35 9.004-4.933v4.359h8.718V399.8h-8.718v17.156c0 4.12-2.123 6.242-5.452 6.242-3.324 0-5.274-2.121-5.274-6.242V399.8h-8.726zm-540.212 6.42c3.668 0 5.968 2.636 6.484 6.539h-13.138c.689-3.955 3.038-6.538 6.654-6.538zm254.152 0c3.667 0 5.967 2.636 6.484 6.539h-13.139c.69-3.955 3.039-6.538 6.655-6.538zm353.089 0c3.68 0 5.977 2.636 6.493 6.539h-13.138c.683-3.955 3.035-6.538 6.645-6.538zm-255.694.52c4.821 0 8.09 3.956 8.09 8.485v.116c0 4.535-2.98 8.377-7.973 8.377-4.816 0-8.09-3.953-8.09-8.493v-.117c0-4.528 2.98-8.367 7.973-8.367zm-240.493 50.806v15.147c-2.066-2.468-4.929-4.591-9.578-4.591-7.283 0-13.99 5.617-13.99 15.891v.108c0 10.268 6.821 15.9 13.99 15.9 4.535 0 7.455-2.14 9.578-5.004v4.421h8.726v-41.872h-8.726zm87.486 0v41.873h8.717V495.4c2.066 2.462 4.929 4.6 9.578 4.6 7.284 0 14-5.632 14-15.9v-.107c0-10.274-6.831-15.892-14-15.892-4.534 0-7.46 2.116-9.578 4.986v-15.542h-8.717zM90.06 459.268v40.15h19.102c9.063 0 15.031-3.671 15.031-11.012v-.117c0-5.39-2.866-8.094-7.515-9.874 2.87-1.607 5.282-4.126 5.282-8.654v-.117c0-2.755-.916-4.985-2.753-6.816-2.296-2.301-5.916-3.56-10.502-3.56H90.06zm8.61 7.73h8.717c3.73 0 5.793 1.498 5.793 4.144v.116c0 2.98-2.464 4.242-6.367 4.242H98.67v-8.502zm50.437 1.095c-5.16-.23-8.023 2.535-9.802 6.77v-6.187h-8.717v30.743h8.717v-11.363c0-7.341 3.553-10.843 9.345-10.843h.457v-9.12zm55.747 0c-4.42 0-7.005 2.358-9.013 4.941v-4.358h-8.718v30.743h8.718v-17.157c0-4.132 2.123-6.25 5.452-6.25 3.33 0 5.283 2.118 5.283 6.25v17.157h8.717v-19.9c0-7.06-3.844-11.426-10.44-11.426zm109.681 0c-4.42 0-7.004 2.358-9.013 4.941v-4.358h-8.717v30.743h8.717v-17.157c0-4.132 2.124-6.25 5.453-6.25 3.33 0 5.273 2.118 5.273 6.25v17.157h8.718v-19.9c0-7.06-3.836-11.426-10.43-11.426zm111.054 0c-5.165-.23-8.032 2.535-9.81 6.77v-6.187h-8.718v30.743h8.717v-11.363c0-7.341 3.557-10.843 9.354-10.843h.458v-9.12zm17.166 0c-7.054 0-13.65 5.171-13.65 14.349v.107c0 9.126 6.48 14.34 13.65 14.34 4.649 0 7.458-1.886 10.035-4.986v1.489c0 5.51-2.807 8.376-8.77 8.376-4.076 0-7.235-1.028-10.386-2.807l-2.978 6.538c3.898 2.06 8.6 3.22 13.587 3.22 5.97 0 10.386-1.265 13.255-4.135 2.583-2.577 3.902-6.606 3.902-12.116v-23.793h-8.726v4.01c-2.348-2.584-5.155-4.593-9.92-4.593zm-167.42.01c-8.948 0-15.201 7.218-15.201 16v.117c0 9.413 6.827 15.891 16.062 15.891 5.562 0 9.695-2.18 12.565-5.74l-4.996-4.42c-2.41 2.244-4.534 3.156-7.461 3.156-3.903 0-6.649-2.06-7.516-6.026h21.399c.063-.792.116-1.599.116-2.287 0-8.719-4.7-16.69-14.968-16.69zm-109.457.225c-5.223 0-8.55.98-11.937 2.467l2.188 6.654c2.807-1.033 5.155-1.66 8.484-1.66 4.357 0 6.6 2.002 6.6 5.624v.511c-2.175-.752-4.421-1.264-7.515-1.264-7.283 0-12.394 3.101-12.394 9.811v.117c0 6.078 4.765 9.407 10.556 9.407 4.247 0 7.173-1.544 9.291-3.892v3.318h8.43v-17.846c0-4.127-1.022-7.501-3.318-9.803-2.181-2.18-5.627-3.444-10.385-3.444zm205.193.35v19.9c0 7.066 3.845 11.417 10.44 11.417 4.419 0 7.004-2.35 9.013-4.933v4.359h8.717v-30.743h-8.717v17.156c0 4.121-2.124 6.242-5.453 6.242-3.323 0-5.273-2.12-5.273-6.242v-17.156h-8.727zm-95.736 6.421c3.674 0 5.964 2.635 6.475 6.538h-13.13c.684-3.955 3.04-6.538 6.655-6.538zm169.94.225c4.247 0 7.515 2.93 7.515 7.12v.108c0 4.184-3.268 7.112-7.515 7.112-4.242 0-7.453-2.865-7.453-7.112v-.108c0-4.19 3.211-7.12 7.453-7.12zm-207.535.179c4.075 0 7.453 3.384 7.453 8.493v.107c0 5.114-3.378 8.493-7.453 8.493s-7.515-3.379-7.515-8.493v-.107c0-5.166 3.44-8.493 7.515-8.493zm110.884 0c4.07 0 7.515 3.384 7.515 8.493v.107c0 5.166-3.446 8.493-7.515 8.493-4.07 0-7.462-3.379-7.462-8.493v-.107c0-5.109 3.392-8.493 7.462-8.493zM98.67 482.848h10.205c4.529 0 6.547 1.66 6.547 4.358v.108c0 2.985-2.362 4.368-6.26 4.368H98.67v-8.834zm67.091 3.03c2.118 0 4.068.46 5.56 1.149v1.551c0 3.163-2.75 5.39-6.824 5.39-2.813 0-4.763-1.374-4.763-3.722v-.116c0-2.755 2.296-4.251 6.027-4.251zm248.546 38.448c-2.508 0-4.535.751-5.919 2.134-1.55 1.544-2.394 3.954-2.394 7.094v2.404h-3.803v3.569h3.803v23.954h4.098v-23.954h8.7v-3.516h-8.754v-2.242c0-3.949 1.601-5.865 4.798-5.865 1.39 0 2.508.26 4 .69v-3.569c-1.337-.482-2.606-.7-4.529-.7zm-250.976 1.022v4.53h4.699v-4.53h-4.7zm123.573 0v4.53h4.69v-4.53h-4.69zm-196.97.79v21.712c0 10.56 6.295 16.205 15.525 16.205 9.332 0 15.568-5.646 15.568-16.528v-21.39h-4.215v21.713c0 8.161-4.37 12.313-11.246 12.313-7.094 0-11.416-4.524-11.416-12.583v-21.443h-4.216zm212.342 1.443v8.323h-3.839v3.623h3.839v16.645c0 5.608 3.353 7.785 7.784 7.785 1.975 0 3.52-.424 4.96-1.175v-3.525c-1.44.695-2.617.969-4 .969-2.772 0-4.637-1.234-4.637-4.592v-16.107h8.744v-3.623h-8.744v-8.323h-4.107zm-158.389 7.73c-4.746 0-7.62 2.4-9.434 5.39v-4.797h-4.108v27.577h4.108v-15.784c0-5.183 3.522-8.645 8.269-8.645 4.855 0 7.623 3.193 7.623 8.313v16.116h4.107v-17.12c0-6.56-3.895-11.05-10.565-11.05zm74.625.012c-7.628 0-13.219 6.4-13.219 14.35v.098c0 8.54 6.181 14.35 13.757 14.35 5.23 0 8.582-2.082 11.354-5.175l-2.556-2.287c-2.244 2.341-4.902 3.883-8.69 3.883-4.907 0-9.121-3.358-9.713-9.327h21.874c.052-.482.052-.808.052-1.336 0-8.059-4.699-14.556-12.86-14.556zm164.137 0c-8.322 0-14.394 6.611-14.394 14.394v.108c0 7.789 6.022 14.295 14.287 14.295 8.322 0 14.457-6.614 14.457-14.403v-.107c0-7.794-6.084-14.286-14.35-14.286zm-128.694.099c-5.229-.213-9.23 3.1-11.255 7.686v-7.202H238.6v27.577h4.099v-10.986c0-8.322 4.905-12.645 10.932-12.645h.323v-4.43zm14.681.011c-5.441 0-9.38 3.14-9.38 7.892v.099c0 5.068 4.798 6.56 9.12 7.793 3.627 1.005 6.878 2.074 6.878 4.852v.107c0 2.67-2.406 4.368-5.712 4.368-3.255 0-6.558-1.28-9.542-3.525l-2.081 2.942c3.094 2.508 7.473 4.054 11.416 4.054 5.493 0 9.812-3.04 9.812-8.269v-.107c0-4.96-4.587-6.607-8.852-7.892-3.685-1.12-7.094-2.133-7.094-4.745v-.108c0-2.29 2.082-4 5.336-4 2.664 0 5.593 1.011 8.152 2.664l1.866-3.094c-2.824-1.865-6.556-3.031-9.919-3.031zm-105.036.475v27.578h4.107v-27.578H163.6zm10.941 0 11.955 27.784h3.614l12.008-27.784h-4.43l-9.327 22.878-9.282-22.878h-4.538zm112.623 0v27.578h4.108v-27.578h-4.108zm32.456 0 12.538 27.47c-1.653 3.897-3.193 5.175-5.65 5.175-1.762 0-2.988-.32-4.314-1.014l-1.39 3.238c1.866.907 3.57 1.39 5.866 1.39 4.16 0 6.818-2.079 9.165-7.784l11.578-28.483h-4.367l-8.861 22.986-10.027-22.986h-4.538zm-101.206 2.88c5.493 0 8.367 4.372 8.798 9.389h-17.767c.534-5.384 4.17-9.39 8.969-9.39zm164.128.16c5.814 0 10.242 4.848 10.242 10.771v.108c0 5.814-4.16 10.619-10.135 10.619-5.814 0-10.188-4.803-10.188-10.726v-.108c0-5.82 4.112-10.664 10.08-10.664zm-179.276 49.649v38.94h4.108v-38.94h-4.108zm81.432 0v16.645c-2.135-3.094-5.439-5.874-10.565-5.874-6.606 0-13.165 5.337-13.165 14.349v.108c0 9.068 6.56 14.295 13.165 14.295 5.069 0 8.32-2.828 10.565-6.134v5.551h4.108v-38.94h-4.108zm-67.674.798v4.529h4.699v-4.53h-4.7zm161.742 0v4.529h4.69v-4.53h-4.69zm-52.751.278c-7.094 0-12.26 4.313-12.26 10.179v.107c0 6.13 3.942 8.91 12.529 10.78 7.84 1.653 9.713 3.622 9.713 7.094v.09c0 3.69-3.307 6.358-8.323 6.358-5.171 0-8.906-1.764-12.798-5.282l-2.618 3.094c4.477 3.995 9.337 5.973 15.255 5.973 7.415 0 12.743-4.165 12.743-10.565v-.099c0-5.705-3.838-8.747-12.16-10.555-8.214-1.762-10.135-3.737-10.135-7.255v-.117c0-3.358 3.096-6.027 7.946-6.027 3.84 0 7.313 1.23 10.78 4.054l2.448-3.255c-3.788-3.037-7.679-4.574-13.12-4.574zm-221.678.26-17.012 37.604h4.322l4.422-9.875h20.322l4.376 9.875h4.53l-17.013-37.604h-3.947zm1.92 4.896 8.484 18.995H97.728l8.529-18.995zm40.41 4.538c-5.062 0-8.316 2.837-10.555 6.143v-5.55h-4.107v36.105h4.107v-13.81c2.13 3.093 5.436 5.864 10.556 5.864 6.67 0 13.174-5.337 13.174-14.349v-.098c0-9.07-6.556-14.305-13.174-14.305zm35.443 0c-5.068 0-8.317 2.837-10.555 6.143v-5.55h-4.117v36.105h4.117v-13.81c2.129 3.093 5.43 5.864 10.555 5.864 6.664 0 13.175-5.337 13.175-14.349v-.098c0-9.07-6.563-14.305-13.175-14.305zm255.739 0c-4.747 0-7.63 2.406-9.444 5.39v-4.798h-4.107v27.578h4.107v-15.785c0-5.177 3.513-8.645 8.26-8.645 4.856 0 7.632 3.197 7.632 8.323v16.107h4.108v-17.13c0-6.56-3.886-11.04-10.556-11.04zm-195.373.011c-7.623 0-13.22 6.4-13.22 14.35v.098c0 8.535 6.181 14.35 13.758 14.35 5.223 0 8.59-2.081 11.362-5.175l-2.565-2.287c-2.238 2.342-4.902 3.883-8.69 3.883-4.907 0-9.118-3.357-9.703-9.327h21.864c.052-.476.052-.802.052-1.336 0-8.059-4.699-14.556-12.86-14.556zm118.13 0c-8.053 0-14.135 6.611-14.135 14.394v.108c0 7.737 6.082 14.296 14.134 14.296 5.178 0 8.483-2.243 11.256-5.336l-2.61-2.449c-2.187 2.348-4.912 4.108-8.43 4.108-5.763 0-10.134-4.751-10.134-10.726v-.099c0-5.923 4.268-10.672 9.865-10.672 3.736 0 6.19 1.868 8.376 4.152l2.717-2.879c-2.56-2.709-5.81-4.896-11.04-4.896zm43.612 0c-7.628 0-13.228 6.4-13.228 14.35v.098c0 8.535 6.18 14.35 13.757 14.35 5.229 0 8.59-2.081 11.363-5.175l-2.556-2.287c-2.244 2.342-4.911 3.883-8.7 3.883-4.907 0-9.112-3.357-9.703-9.327h21.874c.051-.476.046-.802.046-1.336 0-8.059-4.69-14.556-12.852-14.556zm65.388 0c-8.059 0-14.134 6.611-14.134 14.394v.108c0 7.737 6.075 14.296 14.134 14.296 5.171 0 8.477-2.243 11.255-5.336l-2.619-2.449c-2.187 2.348-4.903 4.108-8.421 4.108-5.763 0-10.134-4.751-10.134-10.726v-.099c0-5.923 4.269-10.672 9.865-10.672 3.736 0 6.19 1.868 8.376 4.152l2.718-2.879c-2.56-2.709-5.817-4.896-11.04-4.896zm28.77 0c-7.623 0-13.228 6.4-13.228 14.35v.098c0 8.535 6.19 14.35 13.766 14.35 5.223 0 8.59-2.081 11.363-5.175l-2.565-2.287c-2.239 2.342-4.902 3.883-8.69 3.883-4.908 0-9.128-3.357-9.713-9.327h21.873c.052-.476.052-.802.052-1.336 0-8.059-4.699-14.556-12.86-14.556zm28.51.1c-5.441 0-9.39 3.144-9.39 7.891v.117c0 5.068 4.805 6.556 9.12 7.784 3.634 1.01 6.88 2.08 6.88 4.852v.108c0 2.669-2.398 4.376-5.704 4.376-3.255 0-6.558-1.28-9.543-3.524l-2.09 2.932c3.095 2.497 7.468 4.054 11.417 4.054 5.493 0 9.82-3.037 9.82-8.26v-.116c0-4.954-4.595-6.607-8.86-7.892-3.68-1.12-7.094-2.133-7.094-4.744v-.117c0-2.284 2.082-3.99 5.336-3.99 2.663 0 5.601 1.015 8.161 2.663l1.866-3.094c-2.824-1.86-6.556-3.04-9.92-3.04zm-309.593.482v27.578h4.107V599.96h-4.107zm161.733 0v27.578h4.108V599.96h-4.108zm-136.65 2.88c5.494 0 8.374 4.37 8.799 9.38h-17.757c.533-5.378 4.16-9.38 8.959-9.38zm161.734 0c5.493 0 8.368 4.37 8.798 9.38h-17.757c.534-5.378 4.161-9.38 8.96-9.38zm94.158 0c5.493 0 8.382 4.37 8.807 9.38h-17.766c.534-5.378 4.16-9.38 8.96-9.38zm-352.345.214c5.223 0 9.704 4.16 9.704 10.664v.107c0 6.67-4.372 10.619-9.704 10.619-5.12 0-9.972-4.273-9.972-10.673v-.098c0-6.303 4.852-10.619 9.972-10.619zm35.443 0c5.223 0 9.704 4.16 9.704 10.664v.107c0 6.67-4.372 10.619-9.704 10.619-5.12 0-9.973-4.273-9.973-10.673v-.098c0-6.303 4.853-10.619 9.973-10.619zm93.52 0c5.12 0 9.974 4.262 9.974 10.61v.107c0 6.354-4.853 10.672-9.973 10.672-5.177 0-9.713-4.157-9.713-10.672v-.107c0-6.67 4.38-10.61 9.713-10.61z" style="fill:#fff;fill-opacity:1;fill-rule:nonzero;stroke:none" transform="translate(212.677 -383.66)"/>
</svg>
